# Made in Blockbench 4.7.2
mtllib Kunai Test 1.mtl

o Handle
v 0.006249999999999978 -0.2 0.001875000000000293
v 0.006249999999999978 -0.2 -0.007500000000000007
v 0.006249999999999978 -0.26875 0.001875000000000293
v 0.006249999999999978 -0.26875 -0.007500000000000007
v -0.006250000000000089 -0.2 -0.007500000000000007
v -0.006250000000000089 -0.2 0.001875000000000293
v -0.006250000000000089 -0.26875 -0.007500000000000007
v -0.006250000000000089 -0.26875 0.001875000000000293
vt 0 1
vt 0.046875 1
vt 0.046875 0.71875
vt 0 0.71875
vt 0 0.5
vt 0.03125 0.5
vt 0.03125 0.21875
vt 0 0.21875
vt 0.25 1
vt 0.296875 1
vt 0.296875 0.71875
vt 0.25 0.71875
vt 0.5 1
vt 0.53125 1
vt 0.53125 0.71875
vt 0.5 0.71875
vt 0.296875 0.46875
vt 0.25 0.46875
vt 0.25 0.5
vt 0.296875 0.5
vt 0.546875 0.5
vt 0.5 0.5
vt 0.5 0.46875
vt 0.546875 0.46875
vn 0 0 -1
vn 1 0 0
vn 0 0 1
vn -1 0 0
vn 0 1 0
vn 0 -1 0
usemtl m_6274a520-04d8-7cb6-3203-37e9de0e82c0
f 4/4/1 7/3/1 5/2/1 2/1/1
f 3/8/2 4/7/2 2/6/2 1/5/2
f 8/12/3 3/11/3 1/10/3 6/9/3
f 7/16/4 8/15/4 6/14/4 5/13/4
f 6/20/5 1/19/5 2/18/5 5/17/5
f 7/24/6 4/23/6 3/22/6 8/21/6
o cube
v -5.551115123125783e-17 -0.14242194269935765 0
v -5.551115123125783e-17 -0.14242194269935765 -0.006249999999999978
v 0.0366811642740521 -0.1791031069734098 0
v 0.0366811642740521 -0.1791031069734098 -0.006249999999999978
v -0.036681164274052214 -0.1791031069734098 -0.006249999999999978
v -0.036681164274052214 -0.1791031069734098 0
v -5.551115123125783e-17 -0.21578427124746197 -0.006249999999999978
v -5.551115123125783e-17 -0.21578427124746197 0
vt 0 1
vt 0.203125 1
vt 0.203125 0.796875
vt 0 0.796875
vt 0.25 1
vt 0.28125 1
vt 0.28125 0.796875
vt 0.25 0.796875
vt 0 0.75
vt 0.203125 0.75
vt 0.203125 0.546875
vt 0 0.546875
vt 0.25 0.75
vt 0.28125 0.75
vt 0.28125 0.546875
vt 0.25 0.546875
vt 0.203125 0.46875
vt 0 0.46875
vt 0 0.5
vt 0.203125 0.5
vt 0.703125 1
vt 0.5 1
vt 0.5 0.96875
vt 0.703125 0.96875
vn 0 0 -1
vn 0.7071067811865475 0.7071067811865476 0
vn 0 0 1
vn -0.7071067811865475 -0.7071067811865476 0
vn -0.7071067811865476 0.7071067811865475 0
vn 0.7071067811865476 -0.7071067811865475 0
usemtl m_0dee1676-a8a1-8b71-88a5-c34be8fd1f01
f 12/28/7 15/27/7 13/26/7 10/25/7
f 11/32/8 12/31/8 10/30/8 9/29/8
f 16/36/9 11/35/9 9/34/9 14/33/9
f 15/40/10 16/39/10 14/38/10 13/37/10
f 14/44/11 9/43/11 10/42/11 13/41/11
f 15/48/12 12/47/12 11/46/12 16/45/12
o cube
v 0.005734870947928128 -0.10849798497544927 -1.1102230246251565e-16
v 0.005734870947928128 -0.10849798497544927 -0.006250000000000144
v -0.025358157931735403 -0.1835631969919913 -1.1102230246251565e-16
v -0.025358157931735403 -0.1835631969919913 -0.006250000000000144
v -0.005813623208462904 -0.10371444207088565 -0.006250000000000144
v -0.005813623208462904 -0.10371444207088565 -1.1102230246251565e-16
v -0.036906652088126435 -0.1787796540874277 -0.006250000000000144
v -0.036906652088126435 -0.1787796540874277 -1.1102230246251565e-16
vt 0 1
vt 0.046875 1
vt 0.046875 0.671875
vt 0 0.671875
vt 0 0.5
vt 0.03125 0.5
vt 0.03125 0.171875
vt 0 0.171875
vt 0.25 1
vt 0.296875 1
vt 0.296875 0.671875
vt 0.25 0.671875
vt 0.5 1
vt 0.53125 1
vt 0.53125 0.671875
vt 0.5 0.671875
vt 0.296875 0.46875
vt 0.25 0.46875
vt 0.25 0.5
vt 0.296875 0.5
vt 0.546875 0.5
vt 0.5 0.5
vt 0.5 0.46875
vt 0.546875 0.46875
vn 0 0 -1
vn 0.9238795325112867 -0.3826834323650897 0
vn 0 0 1
vn -0.9238795325112867 0.3826834323650897 0
vn 0.3826834323650897 0.9238795325112867 0
vn -0.3826834323650897 -0.9238795325112867 0
usemtl m_fbc43585-74aa-3e72-cb7a-b4f202ba50ba
f 20/52/13 23/51/13 21/50/13 18/49/13
f 19/56/14 20/55/14 18/54/14 17/53/14
f 24/60/15 19/59/15 17/58/15 22/57/15
f 23/64/16 24/63/16 22/62/16 21/61/16
f 22/68/17 17/67/17 18/66/17 21/65/17
f 23/72/18 20/71/18 19/70/18 24/69/18
o cube
v 0.005813623208462904 -0.10371444207088565 0
v 0.005813623208462904 -0.10371444207088565 -0.006250000000000033
v 0.03690665208812649 -0.1787796540874277 0
v 0.03690665208812649 -0.1787796540874277 -0.006250000000000033
v -0.005734870947928128 -0.10849798497544927 -0.006250000000000033
v -0.005734870947928128 -0.10849798497544927 0
v 0.02535815793173546 -0.1835631969919913 -0.006250000000000033
v 0.02535815793173546 -0.1835631969919913 0
vt 0 1
vt 0.046875 1
vt 0.046875 0.671875
vt 0 0.671875
vt 0 0.5
vt 0.03125 0.5
vt 0.03125 0.171875
vt 0 0.171875
vt 0.25 1
vt 0.296875 1
vt 0.296875 0.671875
vt 0.25 0.671875
vt 0.5 1
vt 0.53125 1
vt 0.53125 0.671875
vt 0.5 0.671875
vt 0.296875 0.46875
vt 0.25 0.46875
vt 0.25 0.5
vt 0.296875 0.5
vt 0.546875 0.5
vt 0.5 0.5
vt 0.5 0.46875
vt 0.546875 0.46875
vn 0 0 -1
vn 0.9238795325112867 0.3826834323650897 0
vn 0 0 1
vn -0.9238795325112867 -0.3826834323650897 0
vn -0.3826834323650897 0.9238795325112867 0
vn 0.3826834323650897 -0.9238795325112867 0
usemtl m_23dc44a5-088e-74f9-6628-d8791ba83f27
f 28/76/19 31/75/19 29/74/19 26/73/19
f 27/80/20 28/79/20 26/78/20 25/77/20
f 32/84/21 27/83/21 25/82/21 30/81/21
f 31/88/22 32/87/22 30/86/22 29/85/22
f 30/92/23 25/91/23 26/90/23 29/89/23
f 31/96/24 28/95/24 27/94/24 32/93/24
o cube
v 0.011007351417800182 -0.13216230751358593 -1.1102230246251565e-16
v 0.011007351417800182 -0.13216230751358593 -0.006249999999999978
v -0.012910363105017975 -0.1899047782955413 -1.1102230246251565e-16
v -0.012910363105017975 -0.1899047782955413 -0.006249999999999978
v -0.006315389816786532 -0.12498699315674044 -0.006249999999999978
v -0.006315389816786532 -0.12498699315674044 -1.1102230246251565e-16
v -0.030233104339604633 -0.18272946393869588 -0.006249999999999978
v -0.030233104339604633 -0.18272946393869588 -1.1102230246251565e-16
vt 0 1
vt 0.078125 1
vt 0.078125 0.75
vt 0 0.75
vt 0.25 1
vt 0.28125 1
vt 0.28125 0.75
vt 0.25 0.75
vt 0 0.75
vt 0.078125 0.75
vt 0.078125 0.5
vt 0 0.5
vt 0.25 0.75
vt 0.28125 0.75
vt 0.28125 0.5
vt 0.25 0.5
vt 0.078125 0.46875
vt 0 0.46875
vt 0 0.5
vt 0.078125 0.5
vt 0.578125 1
vt 0.5 1
vt 0.5 0.96875
vt 0.578125 0.96875
vn 0 0 -1
vn 0.9238795325112867 -0.3826834323650897 0
vn 0 0 1
vn -0.9238795325112867 0.3826834323650897 0
vn 0.3826834323650897 0.9238795325112867 0
vn -0.3826834323650897 -0.9238795325112867 0
usemtl m_8cc490dc-ff5f-c3a9-fe82-aa31120fda9c
f 36/100/25 39/99/25 37/98/25 34/97/25
f 35/104/26 36/103/26 34/102/26 33/101/26
f 40/108/27 35/107/27 33/106/27 38/105/27
f 39/112/28 40/111/28 38/110/28 37/109/28
f 38/116/29 33/115/29 34/114/29 37/113/29
f 39/120/30 36/119/30 35/118/30 40/117/30
o cube
v 0.003923618364504611 -0.11921274607854493 -1.1102230246251565e-16
v 0.003923618364504611 -0.11921274607854493 -0.006249999999999978
v 0.030233104339604577 -0.18272946393869594 -1.1102230246251565e-16
v 0.030233104339604577 -0.18272946393869594 -0.006249999999999978
v -0.007624875791886532 -0.1239962889831086 -0.006249999999999978
v -0.007624875791886532 -0.1239962889831086 -1.1102230246251565e-16
v 0.018684610183213435 -0.18751300684325956 -0.006249999999999978
v 0.018684610183213435 -0.18751300684325956 -1.1102230246251565e-16
vt 0 1
vt 0.046875 1
vt 0.046875 0.71875
vt 0 0.71875
vt 0 0.5
vt 0.03125 0.5
vt 0.03125 0.21875
vt 0 0.21875
vt 0.25 1
vt 0.296875 1
vt 0.296875 0.71875
vt 0.25 0.71875
vt 0.5 1
vt 0.53125 1
vt 0.53125 0.71875
vt 0.5 0.71875
vt 0.296875 0.46875
vt 0.25 0.46875
vt 0.25 0.5
vt 0.296875 0.5
vt 0.546875 0.5
vt 0.5 0.5
vt 0.5 0.46875
vt 0.546875 0.46875
vn 0 0 -1
vn 0.9238795325112867 0.3826834323650897 0
vn 0 0 1
vn -0.9238795325112867 -0.3826834323650897 0
vn -0.3826834323650897 0.9238795325112867 0
vn 0.3826834323650897 -0.9238795325112867 0
usemtl m_dea7f226-7f7c-381f-91f3-4d2acd1de811
f 44/124/31 47/123/31 45/122/31 42/121/31
f 43/128/32 44/127/32 42/126/32 41/125/32
f 48/132/33 43/131/33 41/130/33 46/129/33
f 47/136/34 48/135/34 46/134/34 45/133/34
f 46/140/35 41/139/35 42/138/35 45/137/35
f 47/144/36 44/143/36 43/142/36 48/141/36
o cube
v 0.003284728512819468 -0.09818601565439594 0
v 0.003284728512819468 -0.09818601565439594 -0.006250000000000033
v -0.006282357296307772 -0.12128300396717817 0
v -0.006282357296307772 -0.12128300396717817 -0.006250000000000033
v -0.0024895185653760477 -0.09579424420211413 -0.006250000000000033
v -0.0024895185653760477 -0.09579424420211413 0
v -0.012056604374503344 -0.1188912325148963 -0.006250000000000033
v -0.012056604374503344 -0.1188912325148963 0
vt 0 1
vt 0.03125 1
vt 0.03125 0.90625
vt 0 0.90625
vt 0 0.75
vt 0.03125 0.75
vt 0.03125 0.65625
vt 0 0.65625
vt 0.25 1
vt 0.28125 1
vt 0.28125 0.90625
vt 0.25 0.90625
vt 0.25 0.75
vt 0.28125 0.75
vt 0.28125 0.65625
vt 0.25 0.65625
vt 0.03125 0.46875
vt 0 0.46875
vt 0 0.5
vt 0.03125 0.5
vt 0.53125 1
vt 0.5 1
vt 0.5 0.96875
vt 0.53125 0.96875
vn 0 0 -1
vn 0.9238795325112867 -0.3826834323650897 0
vn 0 0 1
vn -0.9238795325112867 0.3826834323650897 0
vn 0.3826834323650897 0.9238795325112867 0
vn -0.3826834323650897 -0.9238795325112867 0
usemtl m_4724f100-9022-6596-fd57-9e1939d67cb3
f 52/148/37 55/147/37 53/146/37 50/145/37
f 51/152/38 52/151/38 50/150/38 49/149/38
f 56/156/39 51/155/39 49/154/39 54/153/39
f 55/160/40 56/159/40 54/158/40 53/157/40
f 54/164/41 49/163/41 50/162/41 53/161/41
f 55/168/42 52/167/42 51/166/42 56/165/42
o cube
v 0.0025472610361580994 -0.09577032648759098 0
v 0.0025472610361580994 -0.09577032648759098 -0.006250000000000033
v 0.01211434684528534 -0.11886731480037316 0
v 0.01211434684528534 -0.11886731480037316 -0.006250000000000033
v -0.0032269860420375274 -0.09816209793987285 -0.006250000000000033
v -0.0032269860420375274 -0.09816209793987285 0
v 0.006340099767089713 -0.12125908625265502 -0.006250000000000033
v 0.006340099767089713 -0.12125908625265502 0
vt 0 1
vt 0.03125 1
vt 0.03125 0.90625
vt 0 0.90625
vt 0 0.75
vt 0.03125 0.75
vt 0.03125 0.65625
vt 0 0.65625
vt 0.25 1
vt 0.28125 1
vt 0.28125 0.90625
vt 0.25 0.90625
vt 0.25 0.75
vt 0.28125 0.75
vt 0.28125 0.65625
vt 0.25 0.65625
vt 0.03125 0.46875
vt 0 0.46875
vt 0 0.5
vt 0.03125 0.5
vt 0.53125 1
vt 0.5 1
vt 0.5 0.96875
vt 0.53125 0.96875
vn 0 0 -1
vn 0.9238795325112867 0.3826834323650897 0
vn 0 0 1
vn -0.9238795325112867 -0.3826834323650897 0
vn -0.3826834323650897 0.9238795325112867 0
vn 0.3826834323650897 -0.9238795325112867 0
usemtl m_044d7d66-e3f5-d26a-7a2a-e1cd79ecad51
f 60/172/43 63/171/43 61/170/43 58/169/43
f 59/176/44 60/175/44 58/174/44 57/173/44
f 64/180/45 59/179/45 57/178/45 62/177/45
f 63/184/46 64/183/46 62/182/46 61/181/46
f 62/188/47 57/187/47 58/186/47 61/185/47
f 63/192/48 60/191/48 59/190/48 64/189/48
o cube
v 0.002438102663197772 -0.09574521710369233 0
v 0.002438102663197772 -0.09574521710369233 -0.006249999999999978
v 0.000007423102868941989 -0.09817589666402105 0
v 0.000007423102868941989 -0.09817589666402105 -0.006249999999999978
v 0.000007423102868941989 -0.09331453754336355 -0.006249999999999978
v 0.000007423102868941989 -0.09331453754336355 0
v -0.002423256457459777 -0.09574521710369233 -0.006249999999999978
v -0.002423256457459777 -0.09574521710369233 0
vt 0 0.5
vt 0.015625 0.5
vt 0.015625 0.484375
vt 0 0.484375
vt 0 1
vt 0.03125 1
vt 0.03125 0.984375
vt 0 0.984375
vt 0.5 1
vt 0.515625 1
vt 0.515625 0.984375
vt 0.5 0.984375
vt 0 0.75
vt 0.03125 0.75
vt 0.03125 0.734375
vt 0 0.734375
vt 0.265625 0.96875
vt 0.25 0.96875
vt 0.25 1
vt 0.265625 1
vt 0.265625 0.75
vt 0.25 0.75
vt 0.25 0.71875
vt 0.265625 0.71875
vn 0 0 -1
vn 0.7071067811865475 -0.7071067811865476 0
vn 0 0 1
vn -0.7071067811865475 0.7071067811865476 0
vn 0.7071067811865476 0.7071067811865475 0
vn -0.7071067811865476 -0.7071067811865475 0
usemtl m_c7b6024a-985d-5fb0-0b8d-701cd7996090
f 68/196/49 71/195/49 69/194/49 66/193/49
f 67/200/50 68/199/50 66/198/50 65/197/50
f 72/204/51 67/203/51 65/202/51 70/201/51
f 71/208/52 72/207/52 70/206/52 69/205/52
f 70/212/53 65/211/53 66/210/53 69/209/53
f 71/216/54 68/215/54 67/214/54 72/213/54
o Ring
v 0.017834708691207957 -0.27743179560328746 -3.3306690738754696e-16
v 0.017834708691207957 -0.27743179560328746 -0.006250000000000311
v 0.0001570391615441924 -0.2951094651329512 -3.3306690738754696e-16
v 0.0001570391615441924 -0.2951094651329512 -0.006250000000000311
v 0.00015703916154430342 -0.2597541260736238 -0.006250000000000311
v 0.00015703916154430342 -0.2597541260736238 -3.3306690738754696e-16
v -0.01752063036811946 -0.2774317956032875 -0.006250000000000311
v -0.01752063036811946 -0.2774317956032875 -3.3306690738754696e-16
vt 0 1
vt 0.09375 1
vt 0.09375 0.90625
vt 0 0.90625
vt 0.25 1
vt 0.28125 1
vt 0.28125 0.90625
vt 0.25 0.90625
vt 0 0.75
vt 0.09375 0.75
vt 0.09375 0.65625
vt 0 0.65625
vt 0.25 0.75
vt 0.28125 0.75
vt 0.28125 0.65625
vt 0.25 0.65625
vt 0.09375 0.46875
vt 0 0.46875
vt 0 0.5
vt 0.09375 0.5
vt 0.59375 1
vt 0.5 1
vt 0.5 0.96875
vt 0.59375 0.96875
vn 0 0 -1
vn 0.7071067811865475 -0.7071067811865476 0
vn 0 0 1
vn -0.7071067811865475 0.7071067811865476 0
vn 0.7071067811865476 0.7071067811865475 0
vn -0.7071067811865476 -0.7071067811865475 0
usemtl m_a0da3147-d139-8e4d-e919-8e1388a458f0
f 76/220/55 79/219/55 77/218/55 74/217/55
f 75/224/56 76/223/56 74/222/56 73/221/56
f 80/228/57 75/227/57 73/226/57 78/225/57
f 79/232/58 80/231/58 78/230/58 77/229/58
f 78/236/59 73/235/59 74/234/59 77/233/59
f 79/240/60 76/239/60 75/238/60 80/237/60