# Made in Blockbench 4.7.4
mtllib Kusanagi Black.mtl

o cube
v 0.00031249999999993783 1.1510514768936249 0.033725989777112275
v 0.00031249999999993783 1.2173427376298638 -0.032565270959126535
v 0.00031249999999993783 1.146632059511209 0.02930657239469625
v 0.00031249999999993783 1.2129233202474476 -0.03698468834154256
v -0.012812500000000004 1.2173427376298638 -0.032565270959126535
v -0.012812500000000004 1.1510514768936249 0.033725989777112275
v -0.012812500000000004 1.2129233202474476 -0.03698468834154256
v -0.012812500000000004 1.146632059511209 0.02930657239469625
vt 0.34375 0.84375
vt 0.3515625 0.84375
vt 0.3515625 0.8359375
vt 0.34375 0.8359375
vt 0.25 0.875
vt 0.296875 0.875
vt 0.296875 0.8671875
vt 0.25 0.8671875
vt 0.34375 0.8125
vt 0.3515625 0.8125
vt 0.3515625 0.8046875
vt 0.34375 0.8046875
vt 0.25 0.84375
vt 0.296875 0.84375
vt 0.296875 0.8359375
vt 0.25 0.8359375
vt 0.2578125 0.765625
vt 0.25 0.765625
vt 0.25 0.8125
vt 0.2578125 0.8125
vt 0.2578125 0.75
vt 0.25 0.75
vt 0.25 0.703125
vt 0.2578125 0.703125
vn 0 0.7071067811865476 -0.7071067811865475
vn 1 0 0
vn 0 -0.7071067811865476 0.7071067811865475
vn -1 0 0
vn 0 0.7071067811865475 0.7071067811865476
vn 0 -0.7071067811865475 -0.7071067811865476
usemtl m_75225061-d6b7-069a-0c2c-b7eaae00f9c3
f 4/4/1 7/3/1 5/2/1 2/1/1
f 3/8/2 4/7/2 2/6/2 1/5/2
f 8/12/3 3/11/3 1/10/3 6/9/3
f 7/16/4 8/15/4 6/14/4 5/13/4
f 6/20/5 1/19/5 2/18/5 5/17/5
f 7/24/6 4/23/6 3/22/6 8/21/6
o cube
v 0.00031250000000004885 1.1560012243619302 0.03752668872598952
v 0.00031250000000004885 1.2261373782208709 -0.03260946513295121
v 0.00031250000000004885 1.1515818069795143 0.0331072713435735
v 0.00031250000000004885 1.221717960838455 -0.03702888251536718
v -0.012812500000000004 1.2261373782208709 -0.03260946513295121
v -0.012812500000000004 1.1560012243619302 0.03752668872598952
v -0.012812500000000004 1.221717960838455 -0.03702888251536718
v -0.012812500000000004 1.1515818069795143 0.0331072713435735
vt 0.34375 0.78125
vt 0.3515625 0.78125
vt 0.3515625 0.7734375
vt 0.34375 0.7734375
vt 0.28125 1
vt 0.328125 1
vt 0.328125 0.9921875
vt 0.28125 0.9921875
vt 0.25 0.65625
vt 0.2578125 0.65625
vt 0.2578125 0.6484375
vt 0.25 0.6484375
vt 0.28125 0.96875
vt 0.328125 0.96875
vt 0.328125 0.9609375
vt 0.28125 0.9609375
vt 0.2890625 0.890625
vt 0.28125 0.890625
vt 0.28125 0.9375
vt 0.2890625 0.9375
vt 0.2890625 0.8125
vt 0.28125 0.8125
vt 0.28125 0.765625
vt 0.2890625 0.765625
vn 0 0.7071067811865476 -0.7071067811865475
vn 1 0 0
vn 0 -0.7071067811865476 0.7071067811865475
vn -1 0 0
vn 0 0.7071067811865475 0.7071067811865476
vn 0 -0.7071067811865475 -0.7071067811865476
usemtl m_75225061-d6b7-069a-0c2c-b7eaae00f9c3
f 12/28/7 15/27/7 13/26/7 10/25/7
f 11/32/8 12/31/8 10/30/8 9/29/8
f 16/36/9 11/35/9 9/34/9 14/33/9
f 15/40/10 16/39/10 14/38/10 13/37/10
f 14/44/11 9/43/11 10/42/11 13/41/11
f 15/48/12 12/47/12 11/46/12 16/45/12
o cube
v 0 1.1554267001022163 0.020423543456039805
v 0 1.1996208739263756 -0.023770630368119494
v 0 1.1421684479549687 0.007165291308792177
v 0 1.1863626217791279 -0.03702888251536718
v -0.012499999999999956 1.1996208739263756 -0.023770630368119494
v -0.012499999999999956 1.1554267001022163 0.020423543456039805
v -0.012499999999999956 1.1863626217791279 -0.03702888251536718
v -0.012499999999999956 1.1421684479549687 0.007165291308792177
vt 0.34375 0.75
vt 0.3515625 0.75
vt 0.3515625 0.7421875
vt 0.34375 0.7421875
vt 0.3125 0.875
vt 0.34375 0.875
vt 0.34375 0.8671875
vt 0.3125 0.8671875
vt 0.28125 0.65625
vt 0.2890625 0.65625
vt 0.2890625 0.6484375
vt 0.28125 0.6484375
vt 0.3125 0.84375
vt 0.34375 0.84375
vt 0.34375 0.8359375
vt 0.3125 0.8359375
vt 0.3203125 0.78125
vt 0.3125 0.78125
vt 0.3125 0.8125
vt 0.3203125 0.8125
vt 0.3203125 0.78125
vt 0.3125 0.78125
vt 0.3125 0.75
vt 0.3203125 0.75
vn 0 0.7071067811865476 -0.7071067811865475
vn 1 0 0
vn 0 -0.7071067811865476 0.7071067811865475
vn -1 0 0
vn 0 0.7071067811865475 0.7071067811865476
vn 0 -0.7071067811865475 -0.7071067811865476
usemtl m_75225061-d6b7-069a-0c2c-b7eaae00f9c3
f 20/52/13 23/51/13 21/50/13 18/49/13
f 19/56/14 20/55/14 18/54/14 17/53/14
f 24/60/15 19/59/15 17/58/15 22/57/15
f 23/64/16 24/63/16 22/62/16 21/61/16
f 22/68/17 17/67/17 18/66/17 21/65/17
f 23/72/18 20/71/18 19/70/18 24/69/18
o cube
v 0.00031250000000004885 1.226125 -0.03262499999999996
v 0.00031250000000004885 1.226125 -0.03749999999999998
v 0.00031250000000004885 1.21275 -0.03262499999999996
v 0.00031250000000004885 1.21275 -0.03749999999999998
v -0.012812500000000004 1.226125 -0.03749999999999998
v -0.012812500000000004 1.226125 -0.03262499999999996
v -0.012812500000000004 1.21275 -0.03749999999999998
v -0.012812500000000004 1.21275 -0.03262499999999996
vt 0.34375 0.71875
vt 0.3515625 0.71875
vt 0.3515625 0.7109375
vt 0.34375 0.7109375
vt 0.3125 0.65625
vt 0.3203125 0.65625
vt 0.3203125 0.6484375
vt 0.3125 0.6484375
vt 0.34375 0.6875
vt 0.3515625 0.6875
vt 0.3515625 0.6796875
vt 0.34375 0.6796875
vt 0.34375 0.65625
vt 0.3515625 0.65625
vt 0.3515625 0.6484375
vt 0.34375 0.6484375
vt 0.3828125 0.9921875
vt 0.375 0.9921875
vt 0.375 1
vt 0.3828125 1
vt 0.3828125 0.96875
vt 0.375 0.96875
vt 0.375 0.9609375
vt 0.3828125 0.9609375
vn 0 0 -1
vn 1 0 0
vn 0 0 1
vn -1 0 0
vn 0 1 0
vn 0 -1 0
usemtl m_75225061-d6b7-069a-0c2c-b7eaae00f9c3
f 28/76/19 31/75/19 29/74/19 26/73/19
f 27/80/20 28/79/20 26/78/20 25/77/20
f 32/84/21 27/83/21 25/82/21 30/81/21
f 31/88/22 32/87/22 30/86/22 29/85/22
f 30/92/23 25/91/23 26/90/23 29/89/23
f 31/96/24 28/95/24 27/94/24 32/93/24
o cube
v 0 1.2062500000000005 -0.018749999999999933
v 0 1.2062500000000005 -0.03125
v 0 1.2000000000000004 -0.018749999999999933
v 0 1.2000000000000004 -0.03125
v -0.012499999999999956 1.2062500000000005 -0.03125
v -0.012499999999999956 1.2062500000000005 -0.018749999999999933
v -0.012499999999999956 1.2000000000000004 -0.03125
v -0.012499999999999956 1.2000000000000004 -0.018749999999999933
vt 0.375 0.9375
vt 0.3828125 0.9375
vt 0.3828125 0.9296875
vt 0.375 0.9296875
vt 0.375 0.90625
vt 0.3828125 0.90625
vt 0.3828125 0.8984375
vt 0.375 0.8984375
vt 0.375 0.875
vt 0.3828125 0.875
vt 0.3828125 0.8671875
vt 0.375 0.8671875
vt 0.375 0.84375
vt 0.3828125 0.84375
vt 0.3828125 0.8359375
vt 0.375 0.8359375
vt 0.3828125 0.8046875
vt 0.375 0.8046875
vt 0.375 0.8125
vt 0.3828125 0.8125
vt 0.3828125 0.78125
vt 0.375 0.78125
vt 0.375 0.7734375
vt 0.3828125 0.7734375
vn 0 0 -1
vn 1 0 0
vn 0 0 1
vn -1 0 0
vn 0 1 0
vn 0 -1 0
usemtl m_75225061-d6b7-069a-0c2c-b7eaae00f9c3
f 36/100/25 39/99/25 37/98/25 34/97/25
f 35/104/26 36/103/26 34/102/26 33/101/26
f 40/108/27 35/107/27 33/106/27 38/105/27
f 39/112/28 40/111/28 38/110/28 37/109/28
f 38/116/29 33/115/29 34/114/29 37/113/29
f 39/120/30 36/119/30 35/118/30 40/117/30
o cube
v 0 1.2128125000000003 -0.02499999999999991
v 0 1.2128125000000003 -0.03749999999999998
v 0 1.2000000000000004 -0.02499999999999991
v 0 1.2000000000000004 -0.03749999999999998
v -0.012499999999999956 1.2128125000000003 -0.03749999999999998
v -0.012499999999999956 1.2128125000000003 -0.02499999999999991
v -0.012499999999999956 1.2000000000000004 -0.03749999999999998
v -0.012499999999999956 1.2000000000000004 -0.02499999999999991
vt 0.25 0.625
vt 0.2578125 0.625
vt 0.2578125 0.6171875
vt 0.25 0.6171875
vt 0.375 0.75
vt 0.3828125 0.75
vt 0.3828125 0.7421875
vt 0.375 0.7421875
vt 0.28125 0.625
vt 0.2890625 0.625
vt 0.2890625 0.6171875
vt 0.28125 0.6171875
vt 0.375 0.71875
vt 0.3828125 0.71875
vt 0.3828125 0.7109375
vt 0.375 0.7109375
vt 0.3203125 0.6171875
vt 0.3125 0.6171875
vt 0.3125 0.625
vt 0.3203125 0.625
vt 0.3828125 0.6875
vt 0.375 0.6875
vt 0.375 0.6796875
vt 0.3828125 0.6796875
vn 0 0 -1
vn 1 0 0
vn 0 0 1
vn -1 0 0
vn 0 1 0
vn 0 -1 0
usemtl m_75225061-d6b7-069a-0c2c-b7eaae00f9c3
f 44/124/31 47/123/31 45/122/31 42/121/31
f 43/128/32 44/127/32 42/126/32 41/125/32
f 48/132/33 43/131/33 41/130/33 46/129/33
f 47/136/34 48/135/34 46/134/34 45/133/34
f 46/140/35 41/139/35 42/138/35 45/137/35
f 47/144/36 44/143/36 43/142/36 48/141/36
o cube
v 0 1.2001875000000002 -0.0124999999999999
v 0 1.2001875000000002 -0.03749999999999998
v 0 1.1939375 -0.0124999999999999
v 0 1.1939375 -0.03749999999999998
v -0.012499999999999956 1.2001875000000002 -0.03749999999999998
v -0.012499999999999956 1.2001875000000002 -0.0124999999999999
v -0.012499999999999956 1.1939375 -0.03749999999999998
v -0.012499999999999956 1.1939375 -0.0124999999999999
vt 0.34375 0.625
vt 0.3515625 0.625
vt 0.3515625 0.6171875
vt 0.34375 0.6171875
vt 0.28125 0.6875
vt 0.296875 0.6875
vt 0.296875 0.6796875
vt 0.28125 0.6796875
vt 0.375 0.65625
vt 0.3828125 0.65625
vt 0.3828125 0.6484375
vt 0.375 0.6484375
vt 0.3125 0.71875
vt 0.328125 0.71875
vt 0.328125 0.7109375
vt 0.3125 0.7109375
vt 0.3203125 0.671875
vt 0.3125 0.671875
vt 0.3125 0.6875
vt 0.3203125 0.6875
vt 0.3515625 1
vt 0.34375 1
vt 0.34375 0.984375
vt 0.3515625 0.984375
vn 0 0 -1
vn 1 0 0
vn 0 0 1
vn -1 0 0
vn 0 1 0
vn 0 -1 0
usemtl m_75225061-d6b7-069a-0c2c-b7eaae00f9c3
f 52/148/37 55/147/37 53/146/37 50/145/37
f 51/152/38 52/151/38 50/150/38 49/149/38
f 56/156/39 51/155/39 49/154/39 54/153/39
f 55/160/40 56/159/40 54/158/40 53/157/40
f 54/164/41 49/163/41 50/162/41 53/161/41
f 55/168/42 52/167/42 51/166/42 56/165/42
o cube
v 0 1.1940624999999998 -0.006249999999999922
v 0 1.1940624999999998 -0.03749999999999998
v 0 1.155625 -0.006249999999999922
v 0 1.155625 -0.03749999999999998
v -0.012499999999999956 1.1940624999999998 -0.03749999999999998
v -0.012499999999999956 1.1940624999999998 -0.006249999999999922
v -0.012499999999999956 1.155625 -0.03749999999999998
v -0.012499999999999956 1.155625 -0.006249999999999922
vt 0.34375 0.96875
vt 0.3515625 0.96875
vt 0.3515625 0.953125
vt 0.34375 0.953125
vt 0.25 0.6875
vt 0.265625 0.6875
vt 0.265625 0.671875
vt 0.25 0.671875
vt 0.34375 0.9375
vt 0.3515625 0.9375
vt 0.3515625 0.921875
vt 0.34375 0.921875
vt 0.3125 0.75
vt 0.328125 0.75
vt 0.328125 0.734375
vt 0.3125 0.734375
vt 0.3515625 0.890625
vt 0.34375 0.890625
vt 0.34375 0.90625
vt 0.3515625 0.90625
vt 0.3515625 0.875
vt 0.34375 0.875
vt 0.34375 0.859375
vt 0.3515625 0.859375
vn 0 0 -1
vn 1 0 0
vn 0 0 1
vn -1 0 0
vn 0 1 0
vn 0 -1 0
usemtl m_75225061-d6b7-069a-0c2c-b7eaae00f9c3
f 60/172/43 63/171/43 61/170/43 58/169/43
f 59/176/44 60/175/44 58/174/44 57/173/44
f 64/180/45 59/179/45 57/178/45 62/177/45
f 63/184/46 64/183/46 62/182/46 61/181/46
f 62/188/47 57/187/47 58/186/47 61/185/47
f 63/192/48 60/191/48 59/190/48 64/189/48
o cube
v 0 1.1560000000000001 0.03750000000000009
v 0 1.1560000000000001 -0.03749999999999998
v 0 -0.10624999999999996 0.03750000000000009
v 0 -0.10624999999999996 -0.03749999999999998
v -0.012499999999999956 1.1560000000000001 -0.03749999999999998
v -0.012499999999999956 1.1560000000000001 0.03750000000000009
v -0.012499999999999956 -0.10624999999999996 -0.03749999999999998
v -0.012499999999999956 -0.10624999999999996 0.03750000000000009
vt 0.125 0.78125
vt 0.1328125 0.78125
vt 0.1328125 0.1484375
vt 0.125 0.1484375
vt 0 1
vt 0.0390625 1
vt 0.0390625 0.3671875
vt 0 0.3671875
vt 0.15625 0.78125
vt 0.1640625 0.78125
vt 0.1640625 0.1484375
vt 0.15625 0.1484375
vt 0.0625 1
vt 0.1015625 1
vt 0.1015625 0.3671875
vt 0.0625 0.3671875
vt 0.2890625 0.7109375
vt 0.28125 0.7109375
vt 0.28125 0.75
vt 0.2890625 0.75
vt 0.3203125 0.9375
vt 0.3125 0.9375
vt 0.3125 0.8984375
vt 0.3203125 0.8984375
vn 0 0 -1
vn 1 0 0
vn 0 0 1
vn -1 0 0
vn 0 1 0
vn 0 -1 0
usemtl m_75225061-d6b7-069a-0c2c-b7eaae00f9c3
f 68/196/49 71/195/49 69/194/49 66/193/49
f 67/200/50 68/199/50 66/198/50 65/197/50
f 72/204/51 67/203/51 65/202/51 70/201/51
f 71/208/52 72/207/52 70/206/52 69/205/52
f 70/212/53 65/211/53 66/210/53 69/209/53
f 71/216/54 68/215/54 67/214/54 72/213/54
o cube
v 0.015625 -0.10625000000000001 0.05301250000000013
v 0.015625 -0.10625000000000001 -0.053049999999999986
v 0.015625 -0.5 0.05301250000000013
v 0.015625 -0.5 -0.053049999999999986
v -0.02812500000000001 -0.10625000000000001 -0.053049999999999986
v -0.02812500000000001 -0.10625000000000001 0.05301250000000013
v -0.02812500000000001 -0.5 -0.053049999999999986
v -0.02812500000000001 -0.5 0.05301250000000013
vt 0.1875 0.78125
vt 0.2109375 0.78125
vt 0.2109375 0.5859375
vt 0.1875 0.5859375
vt 0.125 1
vt 0.1796875 1
vt 0.1796875 0.8046875
vt 0.125 0.8046875
vt 0.21875 0.78125
vt 0.2421875 0.78125
vt 0.2421875 0.5859375
vt 0.21875 0.5859375
vt 0.1875 1
vt 0.2421875 1
vt 0.2421875 0.8046875
vt 0.1875 0.8046875
vt 0.2734375 0.9453125
vt 0.25 0.9453125
vt 0.25 1
vt 0.2734375 1
vt 0.2734375 0.9375
vt 0.25 0.9375
vt 0.25 0.8828125
vt 0.2734375 0.8828125
vn 0 0 -1
vn 1 0 0
vn 0 0 1
vn -1 0 0
vn 0 1 0
vn 0 -1 0
usemtl m_75225061-d6b7-069a-0c2c-b7eaae00f9c3
f 76/220/55 79/219/55 77/218/55 74/217/55
f 75/224/56 76/223/56 74/222/56 73/221/56
f 80/228/57 75/227/57 73/226/57 78/225/57
f 79/232/58 80/231/58 78/230/58 77/229/58
f 78/236/59 73/235/59 74/234/59 77/233/59
f 79/240/60 76/239/60 75/238/60 80/237/60